<svg fill="inherit" height="13" viewBox="0 0 13 13" width="13" xmlns="http://www.w3.org/2000/svg">
  <path clip-rule="evenodd"
        d="m2.37815 2.76636c.56546-.67727 1.27744-1.22797 2.08722-1.60339l.26358.98366c-.55801.28279-1.05583.66715-1.46913 1.12876zm4.60793 8.84304c.09274 0 .18489-.0025.27639-.0075l.26354.9835c-.17786.0159-.35795.024-.53993.024-.72707 0-1.42393-.1293-2.06885-.3662l.50914-.8819c.49079.161 1.01508.2481 1.55971.2481zm2.25674-.5371.26357.9837c.80951-.3752 1.52121-.9256 2.08661-1.6024l-.8817-.50905c-.4132.46115-.91079.84525-1.46848 1.12775zm-2.79711-10.438921.26354.983531c.09164-.005.18394-.00753.27683-.00753.54481 0 1.06927.08713 1.5602.24822l.50913-.881828c-.64505-.23701-1.34208-.366397-2.06933-.366397-.18213 0-.36237.008115-.54037.024004zm-4.45205 6.253691c-.00503-.09193-.00758-.18451-.00758-.27769 0-.54444.08702-1.06856.24791-1.5592l-.88187-.50915c-.23678.64477-.366036 1.34146-.366036 2.06835 0 .18242.008141.36294.024076.54122zm9.98494-.55322c.005.09121.0075.18307.0075.27553 0 .545-.0872 1.06963-.2484 1.56071l.8818.50911c.2371-.64518.3666-1.34239.3666-2.06982 0-.1817-.0081-.3615-.0239-.53908zm.4544-2.244c-.3752-.80996-.9259-1.52211-1.6031-2.08774l-.509.8817c.4615.41345.8458.91143 1.1285 1.4696zm-9.90927 4.77743-.98369.26358c.37533.8093.92575 1.52084 1.60261 2.08614l.50905-.8817c-.46123-.41306-.84531-.91049-1.12797-1.46802z"
        fill="inherit" fill-rule="evenodd"/>
</svg>
