<svg width="16" height="17" viewBox="0 0 16 17" xmlns="http://www.w3.org/2000/svg">
  <g clip-path="url(#clip0_4071_547048)">
    <path fill-rule="evenodd" clip-rule="evenodd" fill="inherit"
          d="M3.22304 2.05072L3.15456 2.1192L5.9584 4.92304C5.5616 5.54192 5.33376 6.30224 5.33376 7.16688C5.33376 9.57072 7.09888 11.1669 9.33376 11.1669C10.169 11.1669 10.9389 10.9442 11.575 10.5397L14.393 13.3576C12.9331 15.2859 10.6125 16.5 8.00064 16.5C3.58272 16.5 0 13.0274 0 8.5C0 5.80752 1.2672 3.48816 3.22304 2.05072ZM4.5568 1.2584C5.59936 0.77072 6.76736 0.5 8 0.5C12.4179 0.5 16 3.97264 16 8.5C16 9.74544 15.7293 10.9109 15.2442 11.9464L12.7085 9.41072C13.1053 8.79184 13.3331 8.03152 13.3331 7.16688C13.3331 4.76304 11.568 3.16688 9.33312 3.16688C8.49792 3.16688 7.728 3.3896 7.09184 3.79408L4.5568 1.2584ZM9.33312 9.56688C7.99168 9.56688 6.93312 8.60944 6.93312 7.16688C6.93312 5.72432 7.99168 4.76688 9.33312 4.76688C10.6746 4.76688 11.7331 5.72432 11.7331 7.16688C11.7331 8.60944 10.6746 9.56688 9.33312 9.56688Z"/>
  </g>
  <defs>
    <clipPath id="clip0_4071_547048">
      <rect width="16" height="16" fill="inherit" transform="translate(0 0.5)"/>
    </clipPath>
  </defs>
</svg>
