<svg width="20" height="20" viewBox="0 0 20 20" fill="inherit" xmlns="http://www.w3.org/2000/svg">
  <mask id="mask0_1526_23685" style="mask-type:alpha" maskUnits="userSpaceOnUse" x="0" y="0" width="20" height="20">
    <rect width="20" height="20" fill="var(--base-primary)"/>
  </mask>
  <g mask="url(#mask0_1526_23685)">
    <path fill="inherit" d="M17.585 10C17.585 11.5002 17.1401 12.9667 16.3067 14.214C15.4732 15.4613 14.2886 16.4335 12.9026 17.0076C11.5167 17.5817 9.99156 17.7319 8.52022 17.4393C7.04887 17.1466 5.69735 16.4242 4.63657 15.3634C3.57579 14.3026 2.85339 12.9511 2.56072 11.4798C2.26805 10.0084 2.41826 8.48332 2.99235 7.09735C3.56644 5.71137 4.53863 4.52675 5.78598 3.6933C7.03332 2.85985 8.49981 2.415 9.99998 2.415L9.99998 3.55275C8.72483 3.55275 7.47832 3.93087 6.41808 4.63931C5.35783 5.34774 4.53147 6.35466 4.0435 7.53274C3.55552 8.71083 3.42784 10.0072 3.67661 11.2578C3.92538 12.5084 4.53942 13.6572 5.44108 14.5589C6.34275 15.4606 7.49154 16.0746 8.74218 16.3234C9.99283 16.5721 11.2892 16.4445 12.4672 15.9565C13.6453 15.4685 14.6522 14.6421 15.3607 13.5819C16.0691 12.5217 16.4472 11.2751 16.4472 10H17.585Z"/>
  </g>
</svg>
